<?xml version="1.0" encoding="utf-8"?>
<!-- Generator: Adobe Illustrator 22.0.0, SVG Export Plug-In . SVG Version: 6.00 Build 0)  -->
<svg version="1.1" id="Capa_1" xmlns="http://www.w3.org/2000/svg" xmlns:xlink="http://www.w3.org/1999/xlink" x="0px" y="0px"
	 viewBox="0 0 400 400" style="enable-background:new 0 0 400 400;" xml:space="preserve">
<style type="text/css">
	.st0{fill:#E04461;}
	.st1{fill:#E04462;}
	.st2{fill:#E04562;}
</style>
<path class="st0" d="M374.5,93.2c-14.8-32.7-49.9-54.7-85.8-53.7c-51.9,1.4-91.2,43-90.6,95.3c0.4,33.7,0.1,67.5,0.1,104
	c-20-26.1-45.6-40.5-70.9-55.4c-7.5-4.4-14.9-9.2-22.1-14.1c-5.5-3.7-10.3-8.2-14.3-13.5c-14.2-18.4-8.2-45.2,11.7-53.1
	c10.6-4.2,13.7-3,17.9,7.4c6.1,14.8,19.5,24.3,33,23.4c14.2-0.9,27-12.1,31.2-27.2c5.7-20.3-1.2-39.2-18.6-50.8
	C126.6,29.3,72.9,37,43.3,73.2c-30.6,37.5-27.9,90.2,6.2,124.5c17.7,17.8,38.9,30.3,60.5,42.4c42.2,23.5,72.6,56.8,88,103
	c0.9,2.6,1.7,4.8,4.9,4.6c3.3-0.2,3.6-3,4.5-5.3c1.8-5,3.1-10.2,5.3-15c17.3-37.6,44.2-66.3,80.4-86.4
	c23.2-12.9,46.3-26.2,64.9-45.8C383.7,168.1,390.3,128,374.5,93.2z M348.8,192.8c-12.7,12.8-27.3,23.2-43.1,31.4
	c-45.2,23.4-81.8,55.2-102.9,104.9c-14.5-29.5-31.2-54.1-54.9-73.6c-12.9-10.6-27.3-18.8-41.6-27.1c-19.3-11.1-38.2-22.7-53.5-39.3
	c-29.3-31.9-29.8-80.9-1.1-113C80.5,43.9,129.1,38.9,164,64.5c13.5,9.9,18.2,27.3,11.6,42.7c-5.1,12-14.2,18.5-24.9,17.8
	c-10.5-0.6-19.5-8.4-23.2-20.3c-4-12.6-5.7-13.7-19-12c-28.5,3.6-43,37.1-27.5,63.3c5.2,8.8,12.5,15.7,21,21.1
	c13.9,9,28.3,17.3,42.4,26.1c21.4,13.4,41.7,27.8,53.1,51.5c1.2,2.4,2.8,4.5,5.8,3.8c4.7-1.1,3.9-5.1,3.9-8.4
	c0-39.4,0.5-78.9-0.1-118.3c-0.7-44.1,35.3-82.6,79.1-83.9c36.5-1,67.6,18.2,81.8,50.6C381.8,130.5,374.5,166.9,348.8,192.8z"/>
<path class="st1" d="M290.3,69.1c-34.5,0.1-62.6,28.2-62.6,62.7c0,35.1,28.3,63.1,63.4,62.8c34.8-0.3,62.1-28.1,61.9-63.1
	C352.8,96.7,325,69.1,290.3,69.1z M290.3,186.6c-29.8-0.1-54.2-24.7-54.2-54.6c0-30.3,23.8-54.1,54.2-54.2
	c31-0.1,54.9,23.8,54.7,54.6C344.8,162.3,320.2,186.7,290.3,186.6z"/>
<path class="st2" d="M290.6,95.7c-19.4-0.3-35.8,15.8-36.1,35.4c-0.3,20.3,15.5,36.7,35.5,37c20.2,0.3,36.4-15.7,36.6-35.9
	C326.6,111.8,311.1,96.1,290.6,95.7z M290.7,159.6c-15.8,0.1-28.1-12-28.1-27.7c0-15.5,12.5-27.8,28.2-27.7
	c15.3,0.1,27.4,12,27.7,27.2C318.7,146.9,306.3,159.5,290.7,159.6z"/>
</svg>
