<?xml version="1.0" encoding="utf-8"?>
<!-- Generator: Adobe Illustrator 22.0.0, SVG Export Plug-In . SVG Version: 6.00 Build 0)  -->
<svg version="1.1" id="Capa_1" xmlns="http://www.w3.org/2000/svg" xmlns:xlink="http://www.w3.org/1999/xlink" x="0px" y="0px"
	 viewBox="0 0 400 400" style="enable-background:new 0 0 400 400;" xml:space="preserve">
<style type="text/css">
	.st0{fill:#8D64C3;}
	.st1{fill:#8E66C4;}
</style>
<path class="st0" d="M387,199.5c0-29.5-17-54.9-43.8-65.2c-27.4-10.6-60.4-5.2-77.1,18c-11.6,16.1-24.4,18.6-41.2,17
	c-2.9-0.3-5.8-0.4-8.7,0c-7.4,1-11.1-1.7-14.2-9c-16.5-38.8-54.4-61.7-94-59.9c-59.4,2.7-100.4,50.8-95.5,110
	c3.8,45.7,44.4,85.3,90.3,88.1c50,3.1,94.9-29.3,104.8-75.5c4.2-19.6,4.2-19,23.8-19.8c10.6-0.5,15.1,1.9,17.7,13.4
	c8,35.8,41.2,57.7,78.5,52.6C368.1,263.5,389.6,226.7,387,199.5z M379.1,201.9c-0.7,27.9-21.2,51.9-49.9,58.6
	c-33.9,7.8-71-18.8-73.1-53.5c-0.6-10.2-3.6-13.9-13.6-12.7c-4.7,0.6-9.6,0.1-14.4,0.1c0,0.2,0,0.5,0,0.7c-7.7,0-16.5-2.4-22.7,0.6
	c-7.6,3.6-3.3,14-4.8,21.2c-9.2,43.8-47.9,74.9-92.3,73.3C64,288.8,26.6,255.1,21.1,212c-5.7-44.6,20.9-86.1,63.6-99.2
	c45.5-14,94.5,10,111.2,55c2.7,7.4,6.2,9.9,13.9,9.6c13.8-0.6,27.6-0.4,41.4-0.1c5.5,0.1,8.6-1.6,11.4-6.6
	c14.7-26.5,43.2-38.6,71.1-30.8C361.4,147.8,379.8,172.9,379.1,201.9z"/>
<path class="st0" d="M110.7,132.4c-37.1,0.1-67.2,30.6-67,67.7c0.2,36.8,30.4,67,66.9,66.9c37.9-0.1,68.2-30.4,68-67.8
	C178.3,162.1,148,132.2,110.7,132.4z M110.6,258.2c-32.3-0.2-58.5-26.2-58.7-58.1c-0.1-32.6,26.9-59.7,59.5-59.5
	c32.6,0.2,58.2,26.3,58.1,59.4C169.5,232.9,143.7,258.4,110.6,258.2z"/>
<path class="st0" d="M318.2,161.3c-21.6-0.5-39,16.1-39.4,37.3c-0.4,21.5,16.2,39.1,37.3,39.6c21.6,0.5,39.2-16.6,39.6-38.4
	C356,179.1,339.1,161.7,318.2,161.3z M317.5,229.2c-16.8,0.1-30.1-12.7-30.4-29.2c-0.3-16.2,13.2-30.1,29.6-30.4
	c16.2-0.4,30,13.2,30.2,29.6C347,216.3,334.5,229.1,317.5,229.2z"/>
<path class="st1" d="M111.2,167c-18.6,0-33,14.4-32.9,32.8c0.1,18.2,15.1,33,33.2,32.8c18-0.2,32.8-15.4,32.4-33.6
	C143.7,180.9,129.4,167,111.2,167z M111.6,223.5c-13.8,0.2-24.8-10.4-24.8-23.7c0-13.4,11-24.5,24.3-24.5
	c13.1-0.1,23.6,10.3,23.8,23.6C135.1,213.6,125.8,223.4,111.6,223.5z"/>
</svg>
