<?xml version="1.0" encoding="utf-8"?>
<!-- Generator: Adobe Illustrator 22.0.0, SVG Export Plug-In . SVG Version: 6.00 Build 0)  -->
<svg version="1.1" id="Capa_1" xmlns="http://www.w3.org/2000/svg" xmlns:xlink="http://www.w3.org/1999/xlink" x="0px" y="0px"
	 viewBox="0 0 400 400" style="enable-background:new 0 0 400 400;" xml:space="preserve">
<style type="text/css">
	.st0{fill:#FEEB1A;}
	.st1{fill:#FEEB1B;}
	.st2{fill:#FEEB1D;}
	.st3{fill:#FEEB1C;}
</style>
<path class="st0" d="M307.7,362.8c-15.6-59.7-31.3-119.5-46.9-179.2c-5-19.2-4.9-19.2-20.5-6.8c-0.6,0.5-1.3,0.9-1.9,1.4
	c-26.3,19.4-60.1,17.1-84.2-5.7c-8.8-8.3-11.1-7.8-14.4,3.5c-1.5,5.2-2.8,10.5-4.1,15.8C120.8,248.5,106,305.2,91.3,362
	c-1.1,4.3-4.4,9.5-0.3,13.2c4.7,4.2,9.4-0.5,13.9-2.1c0.7-0.2,1.4-0.6,2.1-0.9c27.2-12,27.2-12,47.2,9.2c1.1,1.1,2.2,2.2,3.2,3.4
	c4.3,5.2,8.3,5.9,13.5,0.7c7.1-7.1,15.1-13.4,22.3-20.5c4.1-4.1,7.3-4.5,11.6-0.3c6.6,6.6,14,12.3,20.5,19
	c6.2,6.4,11.2,7.2,17.1-0.2c4.8-6.1,10.6-11.4,15.5-17.4c4-4.9,7.7-6.3,13.8-2.9c8.8,4.8,18.3,8.5,27.6,12.4
	c5.6,2.3,10.1,1.9,9.9-6.3C308.9,367.3,308.3,365,307.7,362.8z M295.1,362.1c-8.9-3.8-17.4-7.1-25.5-11c-5.8-2.8-10.4-2.3-14.3,3
	c-0.5,0.6-1,1.2-1.6,1.7c-7.2,6.3-11.9,19.8-20.3,19c-7.8-0.7-14.8-11.4-22-17.9c-12.3-11-12.2-11.1-24.1-0.1
	c-4,3.7-8.7,6.8-12.1,11c-7.4,9.1-12.8,8.7-20.6-0.6c-16.7-19.9-17.2-19.4-40.7-9.5c-3.5,1.5-7,2.8-12.4,5
	c15.9-60.8,31.3-120,47.1-180.5c12.4,10,25.1,16.6,39.6,18.5c19.6,2.6,37.9-1.3,54.2-12.9c4.2-3,7.3-5.6,9.3,2.5
	c14.3,55.7,28.9,111.3,43.4,166.9C295.7,358.2,295.3,359.4,295.1,362.1z"/>
<path class="st1" d="M200.2,71.9c-31-0.3-56.1,24.3-56,54.8c0.1,30,24.9,55,54.7,55.3c30.6,0.3,56.2-24.9,56.1-55.1
	C254.9,96.5,230.6,72.2,200.2,71.9z M199,171.4c-25.2-0.3-44.6-20.4-44.1-45.8c0.5-24.4,20.6-43.7,45.3-43.4
	c24.6,0.2,44.1,20,44.1,44.7C244.3,152,224.3,171.6,199,171.4z"/>
<path class="st2" d="M159.6,65.3c-12.4-7.2-24.9-14.2-37.4-21.2c-1.6-0.9-3.6-2-5.3-0.5c-2.3,2-1,4.3,0.1,6.3
	c5.9,10.5,11.8,20.9,17.9,31.2c2.6,4.3,4.3,12.3,11.1,8.7c7.6-4.1,14.1-10.5,18.2-19.4C162.6,68.5,161.5,66.3,159.6,65.3z
	 M146.6,76.3c-5.6-0.1-5.6-5.1-8.3-10.6c5.8,2.2,10.3,2.6,11.2,7.6C149.6,74.1,147.6,76.3,146.6,76.3z"/>
<path class="st2" d="M276.6,44.4c-12.1,6.8-24.2,13.6-36.2,20.6c-5,2.9-6,6.9-1.6,11.3c18.6,18.7,17.5,20.6,29.8-1.9
	c2.6-4.7,5.5-9.3,8.1-14c2.5-4.4,4.8-8.8,7.3-13.3C283,41.4,279.7,42.7,276.6,44.4z M254.2,76.2c-0.6,0.2-3-1.7-3-2.7
	c-0.2-5.1,4.4-5.1,8.8-7.6C259.3,71.3,257.9,74.7,254.2,76.2z"/>
<path class="st3" d="M310.6,122.6c-10.5-2.9-21-5.7-31.5-8.6c-15.5-4.3-16.6-3.4-16.6,13.6c1.6,5.4-4.3,17.3,10.2,14.2
	c12.9-2.7,25.5-6.9,38.2-10.4c2.2-0.6,4.9-1.1,5.2-3.9C316.3,123.9,313.1,123.3,310.6,122.6z M273.3,129.4c-0.7-0.5-1-3.4-0.3-4
	c3.8-3.3,7.5-1.6,12.6,1.4C280.9,129.2,277.5,132.1,273.3,129.4z"/>
<path class="st3" d="M119.6,114.1c-9.3,2.6-18.7,4.9-28,7.6c-3.2,0.9-8.2,0.8-8.3,4.9c-0.2,5,5.4,4.8,8.7,5.8
	c9.2,2.8,18.7,4.9,28,7.6c16.1,4.6,16.9,4.1,16.9-13.2C136.9,110.3,135.9,109.6,119.6,114.1z M126.5,129c-4,3.8-7.4-0.1-13.4-1.4
	c5.4-3.8,9.1-5.2,13-2.6C126.9,125.5,127.1,128.4,126.5,129z"/>
<path class="st3" d="M212.6,46.9c-2.8-10.1-5.3-20.3-8.1-30.4c-0.8-2.8-0.9-6.9-5.2-6.5c-3.2,0.3-3.5,3.8-4.2,6.3
	c-2.8,10.1-5.3,20.3-8.2,30.4c-4.8,16.7-4.6,17.1,12.7,17.1C217,63.8,217.2,63.6,212.6,46.9z M202.1,53.2c-0.4,0.7-3.3,1-4.1,0.3
	c-4.7-4.2,0.6-7.9,1.4-12.2C202,45,204.4,48.8,202.1,53.2z"/>
</svg>
