<?xml version="1.0" encoding="utf-8"?>
<!-- Generator: Adobe Illustrator 22.0.0, SVG Export Plug-In . SVG Version: 6.00 Build 0)  -->
<svg version="1.1" id="Capa_1" xmlns="http://www.w3.org/2000/svg" xmlns:xlink="http://www.w3.org/1999/xlink" x="0px" y="0px"
	 viewBox="0 0 400 400" style="enable-background:new 0 0 400 400;" xml:space="preserve">
<style type="text/css">
	.st0{fill:#F397AD;}
	.st1{fill:#F396AD;}
</style>
<path class="st0" d="M350.6,341.4c-0.6-1.8-1.6-3.5-2.7-5.1c-21.3-32.2-40-65.8-57.5-100.1c-8.6-16.9-26.8-13.1-37.7-21.4
	c-4.5,0.1-6.3,2.1-7.4,4.7c-4.6,11.3-12.9,19.1-23.8,24.1c-5.4,2.5-5.6,5.8-4.1,11.2c5.4,19.7,13.8,36.4,35.5,42.5
	c4,1.1,7.4,4.1,11.1,6c27.1,13.9,52.8,30.2,78.7,46.2c3.1,1.9,6.8,5.8,10.2,2.4C356.2,348.4,351.8,344.8,350.6,341.4z M240.4,278.9
	c-7-3.6-6.1-12-9.3-17.9c-5.1-9.2,2.1-12,7.6-16.1c2.4-1.8,4.2-4.5,6.7-6.3c4.5-3.4,5.2-12.7,13.6-9.9c9.2,3.1,19.1,4.4,24.3,15.2
	c13.5,28,29.2,54.8,44.4,82.3C298.3,310.4,269.7,294,240.4,278.9z"/>
<path class="st0" d="M179.4,243.9c-6.2-2.7-12.6-6.6-15-12.2c-8.8-19.9-21.9-16.2-36.7-8.6c-5.3,2.7-11.7,2.7-15,9.4
	c-18,36.7-38.9,71.7-60.3,106.5c-2.3,3.8-8.7,8.5-4.4,12.9c4,4,9.3-1.4,13.2-3.9c32.8-21,66.4-40.6,101.2-57.9
	c17.5-8.7,14.5-26.7,22.5-38C184.9,246.7,182.3,245.1,179.4,243.9z M172,255.9c-2.9,9.2-3.8,20-14.3,25.2
	c-28.6,14-56,30.3-84.3,45.5c16-28.8,31.7-57.4,47-86.2c5.1-9.7,16.9-9.6,26.1-12.8c2.1-0.7,3.3,2.7,4.7,4.5
	c3.3,4.2,7,8.2,10.2,12.5C164.6,248.8,174.4,248.1,172,255.9z"/>
<path class="st1" d="M180.5,135.7c-4.6-8.4-3.8-19.4-14.7-24.9c-35.7-18-70.7-37.4-104.1-59.5c-3.5-2.3-7.4-3.9-10.2-5.3
	c-4.5-0.2-5.5,1.8-4.6,4.4c1,2.9,2.5,5.6,4.2,8.2c17.7,27.9,35.8,55.8,49.7,85.7c9,19.4,20.2,33.2,41.9,37.9
	c7.3,1.6,11.6,1.9,14.8-5.3c3.4-7.6,8.6-14.6,16-17.6C186.9,153.8,186,145.8,180.5,135.7z M163.9,153.4c-2.7,2.1-4.6,5.4-7.5,7.1
	c-4.9,3-4.7,13.5-12.9,10.5c-9.6-3.5-20.1-4.8-25.8-16.8c-13.3-28-29-54.8-44.6-82c29.2,16.2,57.9,32.4,87.2,47.5
	c7.3,3.7,6.2,11.9,9.9,17.5C176.1,146.2,169.4,149.2,163.9,153.4z"/>
<path class="st0" d="M352.9,47.1c-2.8-2.6-5.7,0.6-8.3,1.8c-3.8,1.8-7.4,4.1-11,6.3c-26.3,16.7-52.4,34.2-81.1,46.2
	c-20.7,8.6-29.7,23.6-35.3,43.2c-1.6,5.5-0.8,8.9,4.3,11.2c10.7,4.8,17.9,12.9,23.3,23c1.5,2.8,3,5.4,8.3,5.2
	c11.3-7.8,29.4-5.1,38-22.4c11.9-24.1,25.8-47.2,39.2-70.6c6.8-12,14.3-23.7,21.3-35.6C353,53,355.8,49.8,352.9,47.1z M297.5,128.1
	c-5.2,9.4-10.4,18.9-15.2,28.6c-2.5,5.1-6,8-11.4,10.3c-11.4,5-21.1,7-26.8-7.4c-0.5-1.3-2.2-2.2-3.1-3.4c-3.5-4.7-13.9-5-11.8-12
	c3.1-10.4,4.5-21.9,17.6-27.9c25.9-11.8,50.4-26.5,74.7-41.4c1.8-1.1,3.9-1.9,8.1-4C318,91.5,307.6,109.8,297.5,128.1z"/>
<path class="st0" d="M381.4,199.1c-0.5-3.7-3.9-4.8-6.9-5.1c-19.4-1.6-37.5-7.9-55.3-15.4c-3-1.3-6.1-1.7-8.9-0.2
	c-13.3,7.2-27.4,12.1-42,15.8c-2.6,0.6-5.5,2.2-5.8,5.1c-0.3,4,3.5,4.7,6.3,5.5c11.5,3.2,22.9,6.5,33.7,11.8
	c3.8,1.8,7.6,3.5,10.6,4.8c2.2-0.3,3.5-0.2,4.5-0.6c18.9-7.8,38.2-14.1,58.6-16.5C378.7,204,381.8,202.5,381.4,199.1z M290.6,199.2
	c25-11.9,25-11.9,51.9-0.3C322.9,212.7,313.4,212.9,290.6,199.2z"/>
<path class="st0" d="M200,161.3c-20.3,0.1-37.5,17-38,37.3c-0.5,21.1,16.3,38.7,37.3,39c21.5,0.3,38.8-16.2,39-37
	C238.5,178.7,221.4,161.2,200,161.3z M200.4,226.4c-16.3,0-28.4-11.1-28.7-26.5c-0.3-14.2,13.4-27.3,28.4-27.4
	c15.1-0.1,28.7,12.8,28.7,27C228.8,214.7,216.4,226.3,200.4,226.4z"/>
<path class="st0" d="M131,193.8c-11.5-3.2-23.3-5.8-33.4-12.1c-7.2-4.5-13.4-4.2-20.5-1.1c-15.6,6.7-31.7,11.5-48.7,13.1
	c-4,0.4-8.6,1.4-8.4,5.9c0.2,4.5,4.8,5.2,8.8,5.6c13.8,1.5,27.1,5,40,10c6,2.3,11.7,5.9,19.1,6.2c1.3-0.4,3.3-0.6,4.9-1.6
	c12.1-6.8,25.1-11.5,38.5-14.9c2.9-0.7,6.7-1.5,6.9-5.1C138.5,195.3,134.2,194.7,131,193.8z M57.3,199.6
	c17.4-8.4,34.4-17.1,51.4,0.1C92.2,215.3,75,208.5,57.3,199.6z"/>
<path class="st0" d="M220.2,305.8c-6.2-11.6-11-23.7-14.1-36.5c-0.8-3.3-1.4-7.8-5.7-7.6c-3.9,0.2-4.7,4.7-5.7,7.9
	c-3.9,12.9-7.7,25.9-14.4,37.7c-2.1,3.7-1.6,7.2-0.2,11c6.4,17.7,13.8,35.1,14.7,54.4c0.2,3.5,2.1,7.3,6.1,7.3
	c4.5,0,4.8-4.1,5.2-7.7c1.6-16.6,6.2-32.4,12.8-47.7c1.6-3.9,2.6-8,3.8-11.7C221.7,310.2,221.3,307.8,220.2,305.8z M201.2,339.9
	c-13.3-16.6-13.4-28.7-0.8-49.5C215.1,306.6,210.8,323.2,201.2,339.9z"/>
<path class="st0" d="M220.2,78.6c-6.4-16.5-12.2-33.2-14.1-50.9c-0.4-4.1-1.5-8.8-5.9-8.5c-4.2,0.2-5.3,5.3-5.6,9.1
	c-1.4,17.1-6.9,33-13.3,48.7c-2,4.9-4,9.8-0.7,15.4c6.9,11.7,10.7,24.6,14.1,37.7c0.8,3.1,1.4,7.5,5.9,7.3c3.6-0.2,4.5-4,5.2-6.9
	c3.3-13.6,8.4-26.4,14.9-38.6c0.9-1.6,1.1-3.6,1.8-5.7C221.7,83.7,221.1,81.1,220.2,78.6z M200.4,108.2c-14.2-16.3-10.5-33,0.4-50.5
	C209.5,74.9,216,91.3,200.4,108.2z"/>
</svg>
