<?xml version="1.0" encoding="utf-8"?>
<!-- Generator: Adobe Illustrator 22.0.0, SVG Export Plug-In . SVG Version: 6.00 Build 0)  -->
<svg version="1.1" id="Capa_1" xmlns="http://www.w3.org/2000/svg" xmlns:xlink="http://www.w3.org/1999/xlink" x="0px" y="0px"
	 viewBox="0 0 400 400" style="enable-background:new 0 0 400 400;" xml:space="preserve">
<style type="text/css">
	.st0{fill:#5DA43B;}
	.st1{fill:#5EA53B;}
	.st2{fill:#5EA53C;}
</style>
<path class="st0" d="M324.3,258.9c-0.3,72.9-58.1,128.5-130.2,126.1c-69.1-2.3-123.2-62.4-119-132.6c1.1-18.6,9.5-35.2,17.2-51.7
	c27.7-59.4,61.4-115.5,95.7-171.3c11.7-19,12-19,23.6-0.1c35.8,58.7,71.6,117.4,99.7,180.3C318.3,225.5,325.6,241.7,324.3,258.9z
	 M181.1,59c-31.9,53.8-64.4,107.3-88.5,165.3c-3.6,8.8-7.1,17.7-7.9,27.3c-6.5,79.3,70,141.4,146.5,119.5
	c65.9-18.9,100.9-93.8,74.1-151.6c-30.5-65.5-67.1-127.4-105.6-190.9C192.9,39.8,186.8,49.3,181.1,59z"/>
<path class="st1" d="M198.9,178.1c-45.5,0.3-81.8,37-81.6,82.8c0.2,45.3,37.2,82.2,82.4,82.1c45.8-0.1,82.7-37.5,82.4-83.5
	C281.8,214.2,244.5,177.7,198.9,178.1z M200.1,332.8c-40.7,0.2-73.5-32.2-73.4-72.7c0.1-39.9,32.6-72.2,72.9-72.3
	c40.4,0,72.5,31.9,72.6,72.3C272.2,300.8,240.6,332.6,200.1,332.8z"/>
<path class="st2" d="M199.5,215.6c-24.8,0-44.7,19.8-44.7,44.6c-0.1,25.2,20.3,45.4,45.5,45.1c24.5-0.3,44.6-20.9,44.3-45.3
	C244.3,235.3,224.3,215.6,199.5,215.6z M199.6,295.4c-19.7,0-35.7-16.1-35.3-35.5c0.4-19.2,16.1-34.5,35.3-34.5
	c19.9,0,35.1,15.5,34.9,35.6C234.3,280.4,219.1,295.4,199.6,295.4z"/>
</svg>
