<?xml version="1.0" encoding="utf-8"?>
<!-- Generator: Adobe Illustrator 22.0.0, SVG Export Plug-In . SVG Version: 6.00 Build 0)  -->
<svg version="1.1" id="Capa_1" xmlns="http://www.w3.org/2000/svg" xmlns:xlink="http://www.w3.org/1999/xlink" x="0px" y="0px"
	 viewBox="0 0 400 400" style="enable-background:new 0 0 400 400;" xml:space="preserve">
<style type="text/css">
	.st0{fill:#797979;}
	.st1{fill:#7A7A7A;}
</style>
<path class="st0" d="M308.3,165.9c0.2-8.9-3.7-11.3-11.6-11.1c-14.7,0.3-29.4-0.4-44,0.2c-9,0.4-12.6-1.7-12.2-11.6
	c0.8-19.1,0.2-38.2,0.3-57.3c0-20.5-0.2-41,0.2-61.4c0.1-7.1-2.4-9.7-9.5-9.6c-19.8,0.3-39.6,0.5-59.4-0.1
	c-9.7-0.2-13.3,2.9-13.2,12.9c0.4,39.2-0.1,78.5,0.2,117.7c0.1,7.1-2,9.5-9.2,9.3c-16-0.5-32.1,0-48.1-0.3c-6.8-0.1-9.9,2.2-9.8,9.4
	c0.3,25.3,0.1,50.5-0.1,75.8c-0.1,7.4,2.7,10.4,10.3,10.2c15.3-0.4,30.7,0.4,46.1-0.2c8.6-0.4,10.9,2.3,10.8,10.8
	c-0.4,38.9-0.1,77.8-0.4,116.7c-0.1,9.2,2.5,12.9,12.2,12.5c18.7-0.6,37.5-0.2,56.3-0.1c13.3,0,13.5-0.2,13.5-14
	c0-38.2,0.3-76.4-0.1-114.7c-0.1-8,1.4-11.7,10.5-11.2c15,0.8,30,0,45,0.4c8.4,0.2,12.5-2.3,12.3-11.6
	C307.7,214.3,307.7,190.1,308.3,165.9z M299.3,173.6c-0.4,19.5-0.4,38.9-0.1,58.4c0.1,6.8-2.2,8.8-8.8,8.6
	c-15.7-0.4-31.4,0.3-47.1-0.4c-8.9-0.3-11.9,2.5-11.8,11.6c0.4,39.3-0.2,78.5,0.3,117.8c0.1,8.7-2.7,11.1-11,10.8
	c-14.7-0.6-29.4-0.5-44-0.1c-6.9,0.2-8.7-2.3-8.6-8.9c0.3-20.5,0.1-41,0.2-61.5c0-19.5-0.3-38.9,0.2-58.4
	c0.2-8.3-2.4-11.7-11.1-11.4c-15.7,0.5-31.4-0.1-47.1,0.2c-6.8,0.2-9.7-1.3-9.5-8.9c0.5-19.5,0.5-38.9,0.1-58.4
	c-0.2-7.5,2.7-9.2,9.5-9c15.7,0.4,31.4-0.3,47.1,0.4c8.6,0.3,11.2-2.8,11.2-11.2c-0.3-38.9,0.3-77.9-0.3-116.8
	c-0.2-10.2,3-12.8,12.7-12.2c13.6,0.8,27.3,0.7,41,0c8.5-0.4,10.2,2.8,10.1,10.5c-0.3,39.3,0,78.5-0.4,117.8
	c-0.1,8.8,2.3,12.2,11.5,11.8c15.7-0.7,31.4,0.2,47.1-0.2C297.5,164,299.5,166.6,299.3,173.6z"/>
<path class="st1" d="M311.7,49.7c-14.3-0.2-28.7,0.3-43-0.2c-8.4-0.3-11.9,3.1-11.7,11.4c0.2,12.3,0.1,24.6,0.1,36.9
	c0,12.6,0,25.3,0,37.9c0,3.1,0,6.5,3.5,7.8c3.8,1.4,5.5-1.6,7.2-4.2c16.7-26.2,33.6-52.4,50.1-78.6
	C322.2,53.3,320.2,49.8,311.7,49.7z M268.8,120.3c-0.8-0.4-1.6-0.7-2.3-1.1c0-17.7,0-35.3,0.1-53c0-3.6,0-7,5-7
	c11.4,0,22.8,0,36.2,0C294.1,80.7,281.4,100.5,268.8,120.3z"/>
<path class="st1" d="M143.1,97.8L143.1,97.8C143,85.2,143,72.5,143,59.9c0-7-2.8-10.6-10.5-10.4c-14.3,0.4-28.7,0-43,0.1
	c-9.8,0.1-11.8,3.6-6.5,11.9c16.2,25.7,32.5,51.3,48.9,77c1.8,2.8,3.4,6.7,7.7,5.1c4.1-1.5,3.4-5.5,3.4-8.8
	C143.2,122.4,143.1,110.1,143.1,97.8z M133.6,119.3c-0.8,0.3-1.6,0.6-2.4,0.9c-12.6-19.8-25.2-39.6-38.8-61c13.2,0,24.3,0.1,35.4,0
	c4.5,0,5.9,2.1,5.9,6.3C133.7,83.4,133.6,101.3,133.6,119.3z"/>
<path class="st1" d="M318.2,357.8c-16.2-25.7-32.5-51.3-48.9-76.9c-1.6-2.5-3-6.1-6.8-5.1c-4.1,1.1-4.2,4.9-4.2,8.4
	c0,12.3,0,24.6,0,36.9c0,13,0.1,26,0,38.9c0,6.8,2.8,10,9.9,9.8c14.7-0.3,29.4,0.1,44,0C321.9,369.6,323.6,366.4,318.2,357.8z
	 M272.5,360.9c-4.4,0-4.7-2.9-4.7-6.2c0-18.3,0-36.6,0.1-54.9c0.7-0.2,1.5-0.4,2.2-0.7c12.7,19.9,25.4,39.9,39.2,61.7
	C295.8,360.9,284.1,360.9,272.5,360.9z"/>
<path class="st1" d="M141.9,358.2c-0.3-11.9-0.1-23.9-0.1-35.8c0-12.6,0-25.3,0-37.9c0-3.5,0.1-7.3-3.9-8.6
	c-3.8-1.2-5.2,2.4-6.8,4.9c-16.6,25.9-33.3,51.7-49.7,77.6c-5,8-3.2,11.1,6.2,11.3c14.3,0.2,28.7-0.3,43,0.3
	C139.4,370.2,142.1,366.3,141.9,358.2z M125.9,360.9c-10.9-0.1-21.7,0-35,0c13.6-21.5,26.4-41.6,39.2-61.7c0.8,0.2,1.5,0.3,2.3,0.5
	c0,18.6-0.1,37.2-0.1,55.8C132.4,360.2,129.8,360.9,125.9,360.9z"/>
</svg>
