<?xml version="1.0" encoding="utf-8"?>
<!-- Generator: Adobe Illustrator 22.0.0, SVG Export Plug-In . SVG Version: 6.00 Build 0)  -->
<svg version="1.1" id="Capa_1" xmlns="http://www.w3.org/2000/svg" xmlns:xlink="http://www.w3.org/1999/xlink" x="0px" y="0px"
	 viewBox="0 0 400 400" style="enable-background:new 0 0 400 400;" xml:space="preserve">
<style type="text/css">
	.st0{fill:#F6B220;}
	.st1{fill:#F6B321;}
	.st2{fill:#F6B322;}
</style>
<path class="st0" d="M199.8,111.9c-48.7,0-87.7,39.1-87.6,87.8c0.1,48.4,39.6,87.7,88.1,87.6c47.7-0.1,87.2-39.7,87.3-87.5
	C287.7,151.3,248.3,111.9,199.8,111.9z M198.6,278.2c-43.1-0.3-78.4-36-78.1-79c0.2-43.5,36.1-79.1,79.5-79
	c43.8,0.1,79.3,36.3,78.8,80.5C278.2,244.6,243.1,278.6,198.6,278.2z"/>
<path class="st1" d="M221.8,98.3c-5.7-26-11.3-52-17-78c-0.6-2.8-1.2-6.3-4.8-6.3c-4.2-0.1-4.5,3.6-5.2,6.8
	c-4.6,21.3-9.3,42.6-13.9,63.8c-5.3,24.6-6.8,23.2,18.2,23c5.1,0,10.3,0,15.4,0C220.8,107.6,223.1,104.4,221.8,98.3z M209.8,98.4
	c-6.7,0.4-13.4,0.3-20.2,0c-2.6-0.1-2.5-2.6-2.2-4.5c3.7-17.4,7.6-34.8,11.4-52.2c0.6,0,1.2,0.1,1.7,0.1
	c3.7,17.1,7.4,34.2,11.1,51.3C212.2,95.3,213.1,98.3,209.8,98.4z"/>
<path class="st1" d="M378,194.7c-21.3-4.6-42.7-9-63.9-13.8c-24.9-5.6-21.8-4.8-22,18.5c0,3.8,0,7.7,0,11.5
	c0.1,11.5,1.3,12.6,12.4,10.2c24.5-5.2,48.9-10.4,73.3-15.7c3.2-0.7,7.9-0.4,8-5.3C385.8,195.3,381.3,195.5,378,194.7z M357.9,200.9
	c-17.1,3.7-34.3,7.5-51.4,11.1c-2,0.4-5.1,1.2-5.3-2.1c-0.4-6.7-0.4-13.4,0-20.1c0.2-3.4,3.2-2.3,5.2-1.9
	c17.2,3.7,34.4,7.5,51.5,11.2C358,199.7,357.9,200.3,357.9,200.9z"/>
<path class="st0" d="M106.8,200.9c0-3.9,0-7.7,0-11.6c-0.1-11.7-0.8-12.4-12.2-10c-24.2,5.1-48.4,10.4-72.6,15.6
	c-3.6,0.8-8.7,0.5-8.4,5.9c0.2,4.7,5,4.4,8.2,5.1c20.7,4.6,41.4,9.3,62.1,13.5C109.3,224.5,106.8,226.3,106.8,200.9z M79.6,209.7
	c-13-2.8-26-5.8-39-8.7c0.1-0.5,0.1-1,0.2-1.5c17.2-3.7,34.3-7.3,51.4-11.2c4.5-1,6.2-0.5,6.6,4.6
	C100.3,213.9,100.2,214.2,79.6,209.7z"/>
<path class="st1" d="M208.2,293c-2.9,0-5.8,0-8.7,0c-4.2,0-8.4,0.3-12.5-0.1c-8.6-0.7-10.8,3.1-9.1,11c5.5,24.7,10.8,49.5,16.3,74.2
	c0.7,3.2,0.4,7.9,5.4,7.8c4.9-0.1,4.6-4.7,5.3-7.9c5.2-23.5,10.3-47,15.4-70.5C223.4,293.6,222.9,293,208.2,293z M209,318.7
	c-2.4,11.6-5,23.1-7.5,34.7c-0.3,1.5-0.8,3-1.2,4.6c-0.6-0.1-1.2-0.2-1.8-0.2c-3.7-16.7-7.4-33.5-11-50.2c-0.8-3.8,0.1-6.4,4.7-6.1
	c0.6,0,1.3,0,1.9,0C212.6,300.5,212.7,300.5,209,318.7z"/>
<path class="st1" d="M141.6,113.2c-15.5-8.3-31.1-16.6-46.6-24.9c-2.5-1.4-5.2-3.1-7.9-0.5c-2.8,2.7-0.8,5.3,0.5,7.8
	c8.5,15.8,17.1,31.6,25.4,47.5c3,5.6,6.2,5.7,10.4,1.5c6.8-6.8,13.6-13.6,20.4-20.4c1.3-1.3,2.2-3,3-4.1
	C146.9,115.7,144.1,114.6,141.6,113.2z M133,122.9c-0.2,0.2-0.5,0.4-0.7,0.7c-11.8,14.6-12.4,14.5-21.3-2.1
	c-3.1-5.9-6.3-11.8-9.5-17.7c0.4-0.5,0.9-1.1,1.3-1.6c9.8,5.2,19.5,10.4,29.3,15.6C134.8,119.2,135.3,120.8,133,122.9z"/>
<path class="st1" d="M305.9,87.3c-16.1,8.6-32.2,17.3-48.3,25.9c-6,3.2-6,6.7-1.3,11.2c6.5,6.2,12.8,12.5,19,19
	c5.5,5.8,9,4.1,12.3-2.3c8-15.3,16.3-30.6,24.4-45.8c0.7-1.4,1.5-2.8,2.2-4.3C313.2,85.6,310.2,85,305.9,87.3z M280.8,133.9
	c-1.8,2.7-4.2-1.4-5.9-2.9c-12.1-11.2-12.1-11.2,2.3-18.7c4.5-2.4,9-4.9,13.5-7.2c2.2-1.2,4.4-1.5,4.8,3.2
	C291,116.3,286.5,125.4,280.8,133.9z"/>
<path class="st1" d="M313,307.3c-9.2-17.2-18.4-34.5-27.8-51.7c-2-3.6-5.3-3.6-8.1-0.9c-7.6,7.4-15.1,14.9-22.5,22.4
	c-3,3.1-3.2,6.5,0.9,8.7c16.9,9.2,33.8,18.3,50.8,27.3c4.3,2.3,6.6,0.5,7.3-3.8C313.4,308.5,313.3,307.8,313,307.3z M296.1,298
	c-9.1-4.8-18.1-9.8-27.3-14.4c-4.5-2.3-4.7-4.4-1.1-7.8c14.8-13.9,10.5-14.8,20.2,2.5c3.4,6.1,6.5,12.3,9.8,18.4
	C297.2,297.2,296.6,297.6,296.1,298z"/>
<path class="st1" d="M144,277.2c-7-7-14.1-14-21.1-21.1c-4.5-4.6-7.7-3.3-10.5,1.8c-2.7,5.1-5.5,10.2-8.2,15.2
	c-5.9,11-11.8,22-17.7,33.1c-2.2,4.1-2,7.4,3.6,8.3c1-0.4,1.9-0.7,2.7-1.1c16.7-8.9,33.4-17.8,50-26.8
	C147.6,284,147.6,280.7,144,277.2z M103.8,297.8c-0.6-0.6-1.3-1.2-1.9-1.9c5.5-10.3,11-20.5,17-31.8c5.5,6.2,10.3,11.6,15.5,17.4
	C124.4,286.8,114.1,292.3,103.8,297.8z"/>
<path class="st0" d="M199.9,151c-26.7,0-48.6,21.7-48.7,48.3c-0.1,26.7,21.5,48.3,48.4,48.3c27.1,0.1,48.4-21,48.4-48
	C248.1,172.7,226.7,151.1,199.9,151z M199.8,239.3c-22.2,0-39.7-17.5-39.7-39.8c0-22.4,17.3-39.7,39.7-39.7
	c22.4,0,39.9,17.4,39.8,39.6C239.5,221.5,221.8,239.3,199.8,239.3z"/>
<path class="st2" d="M199.5,174.1c-13.4,0.1-25.1,12-25.1,25.4c0,13.8,11.2,24.9,25.1,24.9c14.5,0,25-10.2,25.2-24.5
	C224.9,185.5,213.6,173.9,199.5,174.1z M198.8,216c-9.2-0.4-15.8-7.7-15.4-17.2c0.3-9.2,7.7-16.1,16.9-15.8
	c9.1,0.2,16.4,7.8,16.2,16.8C216.2,209,208.2,216.4,198.8,216z"/>
</svg>
